<svg width="41" height="41" viewBox="0 0 41 41" fill="none" xmlns="http://www.w3.org/2000/svg">
<path fill-rule="evenodd" clip-rule="evenodd" d="M20.1168 40.3232C31.1626 40.3232 40.1168 31.3689 40.1168 20.3232C40.1168 9.27754 31.1626 0.323242 20.1168 0.323242C9.07111 0.323242 0.116821 9.27754 0.116821 20.3232C0.116821 31.3689 9.07111 40.3232 20.1168 40.3232ZM23.2038 15.7758C24.9086 14.0709 24.9086 11.3068 23.2038 9.6019C21.4989 7.89702 18.7348 7.89702 17.0299 9.6019C15.3251 11.3068 15.3251 14.0709 17.0299 15.7758L20.1168 18.8627L23.2038 15.7758ZM24.6643 23.4102C26.3692 25.1151 29.1333 25.1151 30.8382 23.4102C32.543 21.7053 32.543 18.9412 30.8382 17.2363C29.1333 15.5315 26.3692 15.5315 24.6643 17.2363L21.5774 20.3233L24.6643 23.4102ZM23.2038 31.0446C24.9086 29.3397 24.9086 26.5756 23.2038 24.8707L20.1168 21.7838L17.0299 24.8707C15.3251 26.5756 15.3251 29.3397 17.0299 31.0446C18.7348 32.7495 21.4989 32.7495 23.2038 31.0446ZM9.39545 23.4102C7.69061 21.7053 7.69061 18.9412 9.39545 17.2363C11.1004 15.5315 13.8645 15.5315 15.5694 17.2363L18.6563 20.3233L15.5694 23.4102C13.8645 25.1151 11.1004 25.1151 9.39545 23.4102Z" fill="#7F57F1"/>
</svg>
